<?xml version="1.0" standalone="no"?>
<!DOCTYPE svg PUBLIC "-//W3C//DTD SVG 20010904//EN"
 "http://www.w3.org/TR/2001/REC-SVG-20010904/DTD/svg10.dtd">
<svg version="1.0" xmlns="http://www.w3.org/2000/svg"
 width="702.000000pt" height="334.000000pt" viewBox="0 0 702.000000 334.000000"
 preserveAspectRatio="xMidYMid meet">

<g transform="translate(0.000000,334.000000) scale(0.100000,-0.100000)"
fill="#000000" stroke="none">
<path d="M525 2876 c-37 -16 -82 -67 -93 -104 -4 -15 -7 -234 -7 -487 l0 -460
64 -3 c45 -2 67 1 72 10 5 7 9 196 9 419 0 224 3 420 6 436 11 56 12 56 474
62 l425 6 3 53 c2 31 -2 60 -9 68 -16 20 -898 20 -944 0z"/>
<path d="M1605 2867 c-4 -13 -5 -43 -3 -68 l3 -44 510 0 510 0 3 61 c3 57 1
62 -20 68 -13 3 -242 6 -510 6 l-488 0 -5 -23z"/>
<path d="M785 2597 c-22 -12 -50 -38 -62 -56 l-23 -34 0 -630 0 -630 26 -35
c48 -63 43 -62 577 -62 362 0 486 3 495 12 7 7 12 31 12 54 0 80 40 74 -461
74 l-448 0 -28 24 -28 24 -3 540 -3 540 25 28 24 29 777 0 777 0 24 -28 24
-28 0 -300 0 -300 68 3 67 3 3 339 2 340 -25 38 c-14 21 -43 47 -65 58 -38 20
-56 20 -877 20 l-838 0 -40 -23z"/>
<path d="M2850 1810 l0 -580 160 0 160 0 0 310 c0 171 3 310 8 310 4 0 49
-125 101 -278 51 -152 99 -292 107 -309 l13 -33 131 0 131 0 14 33 c7 17 55
155 106 305 50 149 96 272 100 272 5 0 9 -137 9 -305 l0 -306 158 3 157 3 3
578 2 577 -197 -2 -196 -3 -138 -363 c-76 -200 -140 -366 -143 -369 -3 -3 -8
0 -11 8 -3 8 -67 174 -143 369 l-138 355 -197 3 -197 2 0 -580z"/>
<path d="M4392 1813 l3 -578 160 0 160 0 3 320 3 320 212 -320 212 -320 160 0
160 0 3 578 2 577 -160 0 -160 0 0 -320 c0 -176 -3 -320 -7 -320 -5 0 -102
144 -217 320 l-208 320 -164 0 -164 0 2 -577z"/>
<path d="M5575 2373 c10 -25 395 -1136 395 -1140 0 -2 92 -3 206 -3 l205 0 14
33 c7 17 47 131 88 252 42 121 125 365 186 542 61 177 111 324 111 327 0 4
-76 6 -169 6 l-170 0 -36 -117 c-150 -479 -217 -689 -224 -696 -4 -4 -65 177
-136 403 l-129 410 -174 0 c-162 0 -174 -1 -167 -17z"/>
<path d="M1091 2350 c-46 -11 -83 -40 -103 -81 -16 -30 -18 -70 -18 -382 0
-368 0 -368 49 -420 52 -57 51 -57 424 -57 285 0 347 2 356 14 7 8 11 37 9 68
l-3 53 -50 7 c-27 3 -172 7 -322 7 l-272 1 -20 26 c-20 26 -21 39 -21 304 0
276 0 277 23 298 23 22 24 22 524 22 l502 0 20 -26 c21 -26 21 -36 21 -566 l0
-539 -25 -24 -24 -25 -276 0 c-225 0 -282 -3 -312 -15 -50 -21 -72 -42 -94
-90 -17 -36 -19 -72 -19 -387 0 -391 -2 -378 74 -378 79 0 75 -16 78 352 3
299 5 329 21 345 16 16 47 18 315 23 208 4 303 9 318 17 35 20 73 71 84 114 8
28 10 231 8 637 -3 576 -4 598 -23 631 -11 19 -33 43 -48 55 -28 21 -36 21
-595 23 -312 1 -582 -2 -601 -7z"/>
<path d="M1275 2081 c-28 -6 -30 -9 -33 -60 -2 -30 0 -57 5 -62 4 -4 150 -11
323 -14 245 -6 320 -10 338 -21 22 -14 22 -16 23 -272 1 -141 4 -311 8 -377
l6 -120 65 0 64 0 9 45 c5 25 6 208 3 408 -6 401 -6 398 -73 449 l-36 28 -336
2 c-185 0 -349 -2 -366 -6z"/>
<path d="M1244 1806 c-3 -7 -4 -38 -2 -67 3 -51 5 -54 33 -60 39 -9 461 -9
500 0 30 6 30 7 30 71 l0 65 -278 3 c-229 2 -278 0 -283 -12z"/>
<path d="M426 1659 c-3 -17 -6 -225 -6 -462 0 -417 1 -432 21 -474 12 -24 37
-56 57 -71 l35 -27 304 -5 c289 -6 304 -7 324 -26 19 -19 21 -37 26 -215 6
-216 7 -219 74 -219 73 0 69 -14 69 253 l0 240 -26 35 c-52 67 -74 72 -392 72
l-284 0 -29 29 -29 29 0 417 c0 268 -4 423 -10 436 -9 15 -22 19 -69 19 -58 0
-59 -1 -65 -31z"/>
<path d="M2497 1683 c-3 -4 -8 -199 -11 -433 -4 -234 -9 -433 -12 -443 -11
-35 -42 -39 -336 -45 -274 -5 -291 -6 -321 -26 -17 -12 -42 -37 -54 -55 -22
-33 -23 -41 -23 -271 0 -208 2 -239 16 -244 28 -11 101 -6 112 7 6 7 11 94 13
204 4 178 6 194 24 213 20 19 37 21 310 26 327 7 340 10 390 86 l25 38 -2 472
-3 473 -62 3 c-34 2 -63 -1 -66 -5z"/>
<path d="M705 1014 c-11 -12 -15 -31 -13 -68 l3 -51 40 -7 c49 -8 557 -10 579
-2 12 5 16 21 16 69 0 57 -2 63 -22 69 -13 3 -150 6 -305 6 -246 0 -284 -2
-298 -16z"/>
</g>
</svg>
